# xmcd
#
# Track frame offsets:
#	183
#	16493
#	29455
#	48235
#	65780
#	83123
#	99883
#	111128
#	126460
#	139968
#	158118
#	170575
#
# Disc length: 2490 seconds
#
# Revision: 2
# Processed by: cddbd v1.5.2PL0 Copyright (c) Steve Scherf et al.
# Submitted via: EasyCDDAExtractor 16.0.1.1
#
DISCID=a309b80c
DTITLE=Karen Brooks and Randy Sharp - That's Another Story
DYEAR=1992
DGENRE=Country
TTITLE0=All I Need
TTITLE1=Good Love Is Hard To Find
TTITLE2=The Search Goes On
TTITLE3=Last Call For Love
TTITLE4=If You Don't Really Love Her
TTITLE5=Baby I'm The One
TTITLE6=You Can Always Count On Me
TTITLE7=That's Another Story
TTITLE8=He Loves Me
TTITLE9=Pretending
TTITLE10=I'm Only Human
TTITLE11=It's Not All Over
EXTD=
EXTT0=
EXTT1=
EXTT2=
EXTT3=
EXTT4=
EXTT5=
EXTT6=
EXTT7=
EXTT8=
EXTT9=
EXTT10=
EXTT11=
PLAYORDER=
